<svg width="234" height="72" viewBox="0 0 234 72" fill="none" xmlns="http://www.w3.org/2000/svg">
<path d="M10.7996 55V25.9L28.5996 55H34.4496L52.2496 25.9V55H58.6496V19.85H48.5996L31.5496 47.6L14.4496 19.85H4.39961V55H10.7996ZM66.802 19.85V55H103.802V49.45H73.202V40.2H102.802V34.65H73.202V25.45H103.802V19.85H66.802ZM111.089 19.85V55H136.239C145.539 55 153.489 49.4 153.489 37.45C153.489 25.45 145.539 19.85 136.239 19.85H111.089ZM117.489 25.55H132.989C142.039 25.55 146.639 27.75 146.639 37.45C146.639 47.1 142.039 49.3 132.989 49.3H117.489V25.55ZM160.21 19.85V55H166.61V19.85H160.21Z" fill="#1E184D"/>
<path d="M160.125 18V1.75H172.625C174.008 1.76667 175.183 2.26667 176.15 3.25C177.133 4.21667 177.625 5.39167 177.625 6.775C177.625 6.89167 177.625 7.25833 177.625 7.875C177.625 8.49167 177.625 9.15833 177.625 9.875C177.625 10.6583 177.625 11.3833 177.625 12.05C177.625 12.7 177.625 13.025 177.625 13.025C177.625 14.3917 177.133 15.5667 176.15 16.55C175.183 17.5167 174.008 18 172.625 18H160.125ZM163.875 14.25H172.625C172.975 14.2667 173.267 14.15 173.5 13.9C173.75 13.65 173.875 13.3583 173.875 13.025V6.75C173.875 6.46667 173.767 6.21667 173.55 6C173.333 5.76667 173.1 5.61667 172.85 5.55C172.817 5.55 172.775 5.55 172.725 5.55C172.692 5.53333 172.658 5.525 172.625 5.525L163.875 5.5V14.25ZM192.625 18C191.258 18 190.083 17.5167 189.1 16.55C188.117 15.5667 187.625 14.3917 187.625 13.025C187.625 13.025 187.625 12.7 187.625 12.05C187.625 11.3833 187.625 10.6583 187.625 9.875C187.625 9.15833 187.625 8.49167 187.625 7.875C187.625 7.25833 187.625 6.89167 187.625 6.775C187.625 5.39167 188.117 4.21667 189.1 3.25C190.083 2.26667 191.258 1.775 192.625 1.775L201.375 1.75C202.758 1.76667 203.933 2.26667 204.9 3.25C205.883 4.21667 206.375 5.39167 206.375 6.775C206.375 6.89167 206.375 7.25833 206.375 7.875C206.375 8.49167 206.375 9.15833 206.375 9.875C206.375 10.6583 206.375 11.3833 206.375 12.05C206.375 12.7 206.375 13.025 206.375 13.025C206.375 14.3917 205.883 15.5667 204.9 16.55C203.933 17.5167 202.758 18 201.375 18H192.625ZM201.375 14.25C201.725 14.25 202.017 14.1333 202.25 13.9C202.5 13.65 202.625 13.3583 202.625 13.025V6.75C202.625 6.46667 202.517 6.21667 202.3 6C202.083 5.76667 201.85 5.61667 201.6 5.55C201.567 5.55 201.525 5.55 201.475 5.55C201.442 5.53333 201.408 5.525 201.375 5.525L192.625 5.5C192.558 5.51667 192.475 5.55 192.375 5.6C192.275 5.63333 192.175 5.68333 192.075 5.75C191.892 5.85 191.725 5.99167 191.575 6.175C191.442 6.35833 191.375 6.55833 191.375 6.775V13C191.375 13.3333 191.492 13.6167 191.725 13.85C191.958 14.0833 192.217 14.225 192.5 14.275C192.517 14.275 192.533 14.275 192.55 14.275C192.583 14.275 192.608 14.275 192.625 14.275L201.375 14.25ZM222.62 5.5H216.37V1.75H232.62V5.5H226.37V18H222.62V5.5Z" fill="url(#paint0_linear)"/>
<defs>
<linearGradient id="paint0_linear" x1="197" y1="0" x2="197" y2="23" gradientUnits="userSpaceOnUse">
<stop stop-color="#6AC17B"/>
<stop offset="1" stop-color="#00A9C4"/>
</linearGradient>
</defs>
</svg>
